<svg width="20" height="14" viewBox="0 0 20 14" fill="none" xmlns="http://www.w3.org/2000/svg">
<path style="fill: none;" d="M3.29744 10.7026C1.70811 9.64895 0.720459 8.18706 0.720459 6.5671C0.720459 3.3404 4.64837 0.71954 9.50719 0.71954C14.366 0.71954 18.2939 3.3404 18.2939 6.5671C18.2939 9.79378 14.366 12.4147 9.50719 12.4147" stroke="#131921" stroke-width="1.43908" stroke-miterlimit="10"/>
<path style="fill: none;" d="M3.56548 7.77716L3.42814 11.2293L0.029541 11.0898" stroke="#131921" stroke-width="1.43908" stroke-miterlimit="10"/>
<path  d="M6.39227 5.69543H6.71276C6.81541 5.69543 6.90004 5.67789 6.96665 5.6428C7.03326 5.60637 7.08251 5.55583 7.11442 5.49132C7.14772 5.4254 7.16434 5.34895 7.16434 5.26204C7.16434 5.18349 7.14906 5.11406 7.11856 5.05374C7.08945 4.992 7.04434 4.94436 6.98327 4.91069C6.92227 4.87561 6.84525 4.85806 6.75228 4.85806C6.67879 4.85806 6.61078 4.87277 6.54838 4.90226C6.48591 4.93174 6.43598 4.97311 6.39854 5.02641C6.3611 5.07965 6.34234 5.14422 6.34234 5.21993H5.74093C5.74093 5.05165 5.78531 4.90509 5.87414 4.78026C5.96431 4.65543 6.08499 4.55793 6.23622 4.48782C6.38746 4.41765 6.55392 4.38263 6.73566 4.38263C6.94096 4.38263 7.12063 4.41623 7.2746 4.48357C7.42864 4.5495 7.54864 4.647 7.63467 4.77601C7.72064 4.90509 7.76368 5.06494 7.76368 5.2557C7.76368 5.35246 7.74146 5.44645 7.69708 5.53761C7.65269 5.62742 7.58889 5.70873 7.5056 5.78167C7.42377 5.85319 7.32386 5.91068 7.20599 5.9542C7.08805 5.99624 6.95557 6.0173 6.80847 6.0173H6.39227V5.69543ZM6.39227 6.15616V5.84267H6.80847C6.97359 5.84267 7.11856 5.86163 7.24343 5.89948C7.3683 5.93734 7.47302 5.99206 7.55765 6.06358C7.64228 6.13369 7.70609 6.21716 7.74907 6.31398C7.79212 6.40933 7.81361 6.5152 7.81361 6.63166C7.81361 6.77471 7.78658 6.90231 7.73245 7.01452C7.67833 7.12538 7.60204 7.21931 7.50353 7.29643C7.40642 7.37362 7.29269 7.43253 7.16227 7.47321C7.03186 7.51249 6.88963 7.53212 6.73566 7.53212C6.60804 7.53212 6.48244 7.51458 6.35897 7.47949C6.23689 7.44305 6.1259 7.38901 6.02605 7.31748C5.92754 7.24454 5.84845 7.15338 5.78879 7.044C5.73052 6.93321 5.70142 6.80204 5.70142 6.65055H6.30283C6.30283 6.7291 6.32225 6.79927 6.3611 6.86094C6.39994 6.92268 6.45334 6.97106 6.52128 7.00615C6.59069 7.04117 6.66765 7.05871 6.75228 7.05871C6.84805 7.05871 6.92988 7.04117 6.99788 7.00615C7.06723 6.96965 7.11996 6.91917 7.156 6.85467C7.19344 6.78874 7.2122 6.71229 7.2122 6.62532C7.2122 6.51311 7.1921 6.42336 7.15186 6.35602C7.11162 6.28733 7.05402 6.23679 6.97913 6.20454C6.90424 6.17229 6.81541 6.15616 6.71276 6.15616H6.39227ZM10.2589 4.39524H10.3463V4.87911H10.311C10.1528 4.87911 10.012 4.90294 9.88848 4.95064C9.76501 4.99834 9.66029 5.06636 9.57426 5.15475C9.48963 5.24166 9.42442 5.34686 9.37864 5.47033C9.33425 5.59375 9.31203 5.73187 9.31203 5.88477V6.39388C9.31203 6.50332 9.32244 6.60008 9.34327 6.68422C9.36549 6.76701 9.39666 6.83645 9.4369 6.89252C9.47855 6.94724 9.52707 6.98861 9.5826 7.01667C9.63807 7.04333 9.70053 7.05662 9.76988 7.05662C9.83509 7.05662 9.89402 7.04259 9.94675 7.01452C10.0009 6.98651 10.0467 6.94724 10.0841 6.89671C10.1229 6.84482 10.1521 6.78449 10.1715 6.7158C10.1923 6.64569 10.2027 6.56924 10.2027 6.48645C10.2027 6.40373 10.1923 6.32728 10.1715 6.25717C10.1521 6.187 10.1229 6.12674 10.0841 6.0762C10.0453 6.02431 9.99807 5.98436 9.94261 5.9563C9.88708 5.92823 9.82468 5.91419 9.75533 5.91419C9.66096 5.91419 9.57773 5.93666 9.50558 5.98153C9.43483 6.02505 9.37937 6.08113 9.33912 6.14988C9.29888 6.21857 9.27739 6.29084 9.27459 6.36655L9.09352 6.24874C9.09772 6.14071 9.11988 6.03835 9.16012 5.94158C9.20177 5.84476 9.25864 5.75926 9.33078 5.68491C9.40433 5.60914 9.49243 5.55023 9.59508 5.50819C9.69773 5.46467 9.8136 5.44294 9.94261 5.44294C10.0841 5.44294 10.2082 5.47033 10.3151 5.52499C10.4233 5.57971 10.5135 5.65475 10.5856 5.75009C10.6578 5.8455 10.7119 5.95562 10.7479 6.08045C10.784 6.20528 10.8021 6.33848 10.8021 6.48018C10.8021 6.62883 10.7778 6.76701 10.7292 6.89461C10.682 7.02227 10.6134 7.13375 10.5232 7.22916C10.4344 7.3245 10.3276 7.39886 10.2027 7.45216C10.0778 7.50547 9.93774 7.53212 9.78236 7.53212C9.62144 7.53212 9.47508 7.50264 9.34327 7.44373C9.21285 7.38341 9.10046 7.29926 9.00615 7.19124C8.91178 7.08327 8.83896 6.95494 8.78764 6.80628C8.73771 6.65757 8.71275 6.49489 8.71275 6.31817V6.08254C8.71275 5.83565 8.74812 5.60987 8.81887 5.40509C8.89102 5.19888 8.99434 5.02075 9.12895 4.87068C9.26351 4.7192 9.42582 4.60212 9.6159 4.51934C9.80592 4.43661 10.0203 4.39524 10.2589 4.39524ZM13.6864 5.68909V6.21925C13.6864 6.44928 13.6621 6.64778 13.6136 6.81466C13.565 6.98017 13.495 7.11621 13.4034 7.22282C13.3132 7.32801 13.2058 7.40587 13.0809 7.45635C12.956 7.50682 12.8173 7.53212 12.6647 7.53212C12.5426 7.53212 12.4288 7.51667 12.3234 7.48583C12.218 7.45358 12.1229 7.40378 12.0383 7.33644C11.9551 7.2691 11.8829 7.18428 11.8219 7.08186C11.7622 6.97808 11.7164 6.85467 11.6845 6.71162C11.6526 6.5685 11.6367 6.4044 11.6367 6.21925V5.68909C11.6367 5.45907 11.6609 5.26204 11.7095 5.09794C11.7595 4.93242 11.8295 4.79706 11.9196 4.69187C12.0112 4.58667 12.1195 4.50955 12.2443 4.46043C12.3691 4.40996 12.5079 4.38472 12.6605 4.38472C12.7826 4.38472 12.8957 4.40085 12.9997 4.4331C13.1051 4.46394 13.2002 4.51232 13.2848 4.57824C13.3694 4.64417 13.4416 4.72905 13.5012 4.83283C13.5609 4.93519 13.6067 5.05793 13.6386 5.20098C13.6705 5.34267 13.6864 5.50536 13.6864 5.68909ZM13.085 6.29921V5.60704C13.085 5.49625 13.0788 5.39949 13.0663 5.3167C13.0552 5.23397 13.0378 5.16386 13.0143 5.10631C12.9907 5.0474 12.9616 4.99976 12.9268 4.96326C12.8922 4.92682 12.8526 4.90016 12.8082 4.8833C12.7639 4.8665 12.7146 4.85806 12.6605 4.85806C12.5925 4.85806 12.5322 4.87142 12.4795 4.89807C12.4281 4.92472 12.3844 4.9675 12.3483 5.02641C12.3123 5.0839 12.2845 5.16103 12.2651 5.25779C12.2471 5.3532 12.2381 5.46959 12.2381 5.60704V6.29921C12.2381 6.41001 12.2436 6.5075 12.2547 6.59165C12.2672 6.67579 12.2853 6.74806 12.3088 6.80838C12.3338 6.86728 12.3629 6.91566 12.3962 6.95352C12.4309 6.99002 12.4705 7.01667 12.5148 7.03348C12.5606 7.05028 12.6106 7.05871 12.6647 7.05871C12.7313 7.05871 12.7902 7.04542 12.8415 7.01877C12.8943 6.9907 12.9387 6.94724 12.9748 6.88834C13.0122 6.82801 13.04 6.74947 13.058 6.65265C13.076 6.55589 13.085 6.43807 13.085 6.29921Z" fill="#131921"/>
<path d="M6.38986 5.69582V5.51116H6.20721V5.69582H6.38986ZM6.96424 5.6432L7.04863 5.80699L7.05125 5.80557L6.96424 5.6432ZM7.11201 5.49171L6.94933 5.40776L6.9486 5.40917L7.11201 5.49171ZM7.11615 5.05413L6.95128 5.13372L6.95353 5.13821L7.11615 5.05413ZM6.98087 4.91108L6.89064 5.07161L6.89344 5.07315L6.98087 4.91108ZM6.33994 5.22033V5.40499H6.52259V5.22033H6.33994ZM5.73852 5.22033H5.55587V5.40499H5.73852V5.22033ZM5.87174 4.78065L5.72422 4.6717L5.72342 4.67281L5.87174 4.78065ZM7.2722 4.48396L7.19974 4.65348L7.20102 4.65404L7.2722 4.48396ZM7.69467 5.538L7.85802 5.62061L7.85851 5.61956L7.69467 5.538ZM7.20358 5.95459L7.26434 6.12873L7.26611 6.12805L7.20358 5.95459ZM6.38986 6.01769H6.20721V6.20235H6.38986V6.01769ZM6.38986 6.15655H6.20721V6.34121H6.38986V6.15655ZM6.38986 5.84306V5.6584H6.20721V5.84306H6.38986ZM7.55525 6.06397L7.43811 6.20567L7.43945 6.20678L7.55525 6.06397ZM7.74667 6.31437L7.58009 6.39002L7.58051 6.39095L7.74667 6.31437ZM7.73005 7.01491L7.89382 7.09665L7.89425 7.09585L7.73005 7.01491ZM7.50112 7.29682L7.38928 7.15088L7.3883 7.15168L7.50112 7.29682ZM7.15987 7.47361L7.21198 7.65057L7.21369 7.65002L7.15987 7.47361ZM6.35656 7.47988L6.30481 7.65697L6.30718 7.65765L6.35656 7.47988ZM6.02364 7.31788L5.9157 7.4669L5.91807 7.46856L6.02364 7.31788ZM5.78638 7.04439L5.6251 7.13106L5.62644 7.13352L5.78638 7.04439ZM5.69901 6.65095V6.46629H5.51636V6.65095H5.69901ZM6.30042 6.65095H6.48308V6.46629H6.30042V6.65095ZM6.51888 7.00654L6.43589 7.17101L6.43723 7.17169L6.51888 7.00654ZM6.99548 7.00654L7.07846 7.17101L7.07974 7.17033L6.99548 7.00654ZM7.15359 6.85506L6.99523 6.76303L6.99463 6.7642L7.15359 6.85506ZM7.14945 6.35641L6.99225 6.45047L6.9931 6.45188L7.14945 6.35641ZM6.38986 5.88048H6.71036V5.51116H6.38986V5.88048ZM6.71036 5.88048C6.83213 5.88048 6.94817 5.85986 7.04863 5.80699L6.87986 5.4794C6.8471 5.4967 6.79389 5.51116 6.71036 5.51116V5.88048ZM7.05125 5.80557C7.14866 5.75227 7.22562 5.67483 7.27536 5.57432L6.9486 5.40917C6.93453 5.43767 6.91304 5.46124 6.87724 5.48082L7.05125 5.80557ZM7.27463 5.57573C7.32322 5.47959 7.34459 5.37347 7.34459 5.26243H6.97928C6.97928 5.32527 6.96735 5.37199 6.94933 5.40776L7.27463 5.57573ZM7.34459 5.26243C7.34459 5.15926 7.32444 5.06023 7.27877 4.96999L6.95353 5.13821C6.96893 5.16862 6.97928 5.20845 6.97928 5.26243H7.34459ZM7.28096 4.9746C7.23481 4.8768 7.16212 4.80066 7.06836 4.74895L6.89344 5.07315C6.92175 5.08879 6.93916 5.10811 6.95128 5.13372L7.28096 4.9746ZM7.0711 4.75049C6.97508 4.69534 6.86458 4.67379 6.74987 4.67379V5.04311C6.82111 5.04311 6.86464 5.05666 6.89064 5.07161L7.0711 4.75049ZM6.74987 4.67379C6.65148 4.67379 6.55693 4.69368 6.46871 4.73529L6.62317 5.07001C6.65982 5.05272 6.70122 5.04311 6.74987 5.04311V4.67379ZM6.46871 4.73529C6.37957 4.77739 6.3042 4.83876 6.24721 4.91982L6.545 5.13372C6.56296 5.10818 6.58749 5.08682 6.62317 5.07001L6.46871 4.73529ZM6.24721 4.91982C6.1845 5.00914 6.15729 5.11255 6.15729 5.22033H6.52259C6.52259 5.17662 6.53288 5.15102 6.545 5.13372L6.24721 4.91982ZM6.33994 5.03567H5.73852V5.40499H6.33994V5.03567ZM5.92118 5.22033C5.92118 5.08688 5.9557 4.97885 6.01999 4.88843L5.72342 4.67281C5.61018 4.83205 5.55587 5.0172 5.55587 5.22033H5.92118ZM6.0192 4.88954C6.0894 4.79241 6.18456 4.71417 6.30998 4.656L6.15765 4.32036C5.9806 4.40247 5.83442 4.51917 5.72422 4.6717L6.0192 4.88954ZM6.30998 4.656C6.43516 4.59796 6.57532 4.56768 6.73325 4.56768V4.19836C6.5277 4.19836 6.33488 4.23812 6.15765 4.32036L6.30998 4.656ZM6.73325 4.56768C6.91907 4.56768 7.07317 4.59814 7.19974 4.65348L7.34471 4.31451C7.16334 4.23517 6.9581 4.19836 6.73325 4.19836V4.56768ZM7.20102 4.65404C7.32535 4.70728 7.41625 4.7828 7.48079 4.87963L7.78368 4.67324C7.67622 4.51197 7.52712 4.39256 7.34343 4.31395L7.20102 4.65404ZM7.48079 4.87963C7.54228 4.9719 7.57863 5.09371 7.57863 5.25609H7.94393C7.94393 5.03696 7.89425 4.839 7.78368 4.67324L7.48079 4.87963ZM7.57863 5.25609C7.57863 5.32318 7.56347 5.38935 7.53077 5.45644L7.85851 5.61956C7.91465 5.50433 7.94393 5.38258 7.94393 5.25609H7.57863ZM7.53132 5.45546C7.49875 5.5212 7.45071 5.58374 7.38361 5.64252L7.62265 5.92179C7.72207 5.83469 7.80177 5.73436 7.85802 5.62061L7.53132 5.45546ZM7.38361 5.64252C7.32096 5.6973 7.24133 5.74408 7.14099 5.78108L7.26611 6.12805C7.40158 6.07813 7.52158 6.01012 7.62265 5.92179L7.38361 5.64252ZM7.14276 5.78046C7.04747 5.81444 6.93599 5.83303 6.80607 5.83303V6.20235C6.97027 6.20235 7.12382 6.17889 7.26434 6.12873L7.14276 5.78046ZM6.80607 5.83303H6.38986V6.20235H6.80607V5.83303ZM6.57252 6.01769V5.69582H6.20721V6.01769H6.57252ZM6.57252 6.15655V5.84306H6.20721V6.15655H6.57252ZM6.38986 6.02772H6.80607V5.6584H6.38986V6.02772ZM6.80607 6.02772C6.95791 6.02772 7.08455 6.0452 7.18854 6.07678L7.29351 5.72303C7.14781 5.67884 6.98446 5.6584 6.80607 5.6584V6.02772ZM7.18854 6.07678C7.29393 6.10872 7.37558 6.1528 7.43811 6.20567L7.67239 5.92234C7.56566 5.8321 7.4378 5.7668 7.29351 5.72303L7.18854 6.07678ZM7.43945 6.20678C7.50319 6.25959 7.54916 6.32041 7.58009 6.39002L7.91331 6.23866C7.85821 6.11469 7.77656 6.00864 7.67105 5.92117L7.43945 6.20678ZM7.58051 6.39095C7.6115 6.4597 7.62855 6.5391 7.62855 6.63205H7.99386C7.99386 6.49214 7.96786 6.35974 7.91288 6.23774L7.58051 6.39095ZM7.62855 6.63205C7.62855 6.75115 7.60615 6.85044 7.56584 6.93403L7.89425 7.09585C7.96214 6.95502 7.99386 6.79904 7.99386 6.63205H7.62855ZM7.56627 6.93317C7.52468 7.01836 7.4663 7.09056 7.38928 7.15088L7.61297 7.44283C7.73297 7.3489 7.82722 7.23312 7.89382 7.09665L7.56627 6.93317ZM7.3883 7.15168C7.31055 7.21342 7.21728 7.26242 7.10598 7.29713L7.21369 7.65002C7.36328 7.60336 7.49753 7.5346 7.614 7.44203L7.3883 7.15168ZM7.10769 7.29658C6.99627 7.33019 6.87188 7.34785 6.73325 7.34785V7.71717C6.90263 7.71717 7.06263 7.69557 7.21198 7.65057L7.10769 7.29658ZM6.73325 7.34785C6.62238 7.34785 6.51346 7.33265 6.406 7.30212L6.30718 7.65765C6.44667 7.69729 6.58883 7.71717 6.73325 7.71717V7.34785ZM6.40831 7.3028C6.30475 7.27183 6.21208 7.22653 6.12922 7.16719L5.91807 7.46856C6.03497 7.55233 6.16429 7.61499 6.30481 7.65697L6.40831 7.3028ZM6.13153 7.16892C6.05476 7.11204 5.99332 7.04138 5.94632 6.95527L5.62644 7.13352C5.69877 7.26617 5.79551 7.37789 5.9157 7.4669L6.13153 7.16892ZM5.94766 6.95773C5.90608 6.87857 5.88166 6.77842 5.88166 6.65095H5.51636C5.51636 6.82643 5.55021 6.98857 5.6251 7.13106L5.94766 6.95773ZM5.69901 6.83561H6.30042V6.46629H5.69901V6.83561ZM6.11777 6.65095C6.11777 6.76193 6.14572 6.86694 6.20459 6.9605L6.51279 6.76223C6.49398 6.73232 6.48308 6.69711 6.48308 6.65095H6.11777ZM6.20459 6.9605C6.26188 7.05153 6.34055 7.12183 6.43589 7.17101L6.60192 6.84201C6.56131 6.82108 6.53312 6.79455 6.51279 6.76223L6.20459 6.9605ZM6.43723 7.17169C6.53422 7.22068 6.63955 7.24377 6.74987 7.24377V6.87445C6.691 6.87445 6.64235 6.86244 6.60058 6.84133L6.43723 7.17169ZM6.74987 7.24377C6.86732 7.24377 6.9791 7.22228 7.07846 7.17101L6.91243 6.84201C6.8759 6.8609 6.82391 6.87445 6.74987 6.87445V7.24377ZM7.07974 7.17033C7.17825 7.11857 7.25795 7.04366 7.31262 6.94591L6.99463 6.7642C6.97709 6.79547 6.95134 6.82157 6.91121 6.84268L7.07974 7.17033ZM7.31201 6.94702C7.36754 6.84927 7.39244 6.74026 7.39244 6.62571H7.02714C7.02714 6.68511 7.0146 6.72893 6.99523 6.76303L7.31201 6.94702ZM7.39244 6.62571C7.39244 6.49343 7.36906 6.36682 7.3058 6.26094L6.9931 6.45188C7.01027 6.48069 7.02714 6.53356 7.02714 6.62571H7.39244ZM7.30666 6.26236C7.24596 6.1587 7.15786 6.08219 7.04833 6.03504L6.90513 6.37482C6.94543 6.39218 6.97246 6.41667 6.99225 6.45047L7.30666 6.26236ZM7.04833 6.03504C6.94567 5.99085 6.83146 5.97189 6.71036 5.97189V6.34121C6.79462 6.34121 6.85794 6.35451 6.90513 6.37482L7.04833 6.03504ZM6.71036 5.97189H6.38986V6.34121H6.71036V5.97189ZM10.3439 4.39564H10.5266V4.21098H10.3439V4.39564ZM10.3439 4.8795V5.06416H10.5266V4.8795H10.3439ZM9.37623 5.47072L9.20521 5.40585L9.2046 5.40757L9.37623 5.47072ZM9.34086 6.68462L9.16362 6.72943L9.1646 6.73293L9.34086 6.68462ZM9.4345 6.89291L9.28655 7.00137L9.28972 7.00549L9.4345 6.89291ZM9.58019 7.01706L9.49849 7.18221L9.50184 7.18381L9.58019 7.01706ZM9.94434 7.01491L9.86099 6.85062L9.85929 6.85155L9.94434 7.01491ZM10.0817 6.8971L9.93606 6.78569L9.93558 6.7863L10.0817 6.8971ZM10.1691 6.71619L9.99415 6.66313L9.99348 6.66547L10.1691 6.71619ZM10.1691 6.25756L9.99317 6.30736L9.99415 6.31062L10.1691 6.25756ZM10.0817 6.07659L9.93606 6.18807L9.93752 6.18997L10.0817 6.07659ZM9.50318 5.98192L9.59803 6.13975L9.59889 6.13919L9.50318 5.98192ZM9.27218 6.36694L9.1733 6.52224L9.44284 6.6976L9.45471 6.37377L9.27218 6.36694ZM9.09111 6.24913L8.90864 6.24192L8.90456 6.3473L8.9923 6.40443L9.09111 6.24913ZM9.15772 5.94198L8.99023 5.8683L8.98937 5.87039L9.15772 5.94198ZM9.59268 5.50858L9.66129 5.6797L9.66324 5.6789L9.59268 5.50858ZM10.3127 5.52538L10.2301 5.69016L10.231 5.69053L10.3127 5.52538ZM10.7268 6.895L10.5564 6.82871L10.5557 6.83037L10.7268 6.895ZM10.5208 7.22955L10.3887 7.10195L10.3878 7.10299L10.5208 7.22955ZM9.34086 7.44412L9.26487 7.61204L9.26701 7.61302L9.34086 7.44412ZM8.78523 6.80668L8.61226 6.86601L8.61281 6.86749L8.78523 6.80668ZM8.81646 5.40548L8.64422 5.34386L8.64404 5.3446L8.81646 5.40548ZM9.12655 4.87107L9.26183 4.9951L9.26238 4.99449L9.12655 4.87107ZM10.2565 4.58029H10.3439V4.21098H10.2565V4.58029ZM10.1613 4.39564V4.8795H10.5266V4.39564H10.1613ZM10.3439 4.69484H10.3086V5.06416H10.3439V4.69484ZM10.3086 4.69484C10.1324 4.69484 9.96882 4.72137 9.82093 4.77856L9.95128 5.12356C10.0503 5.08528 10.1684 5.06416 10.3086 5.06416V4.69484ZM9.82093 4.77856C9.67487 4.83494 9.54744 4.91693 9.44168 5.02557L9.70202 5.28465C9.76827 5.21657 9.85034 5.16253 9.95128 5.12356L9.82093 4.77856ZM9.44168 5.02557C9.33769 5.13237 9.25927 5.26021 9.20521 5.40585L9.54726 5.53554C9.58482 5.43435 9.63676 5.35168 9.70202 5.28465L9.44168 5.02557ZM9.2046 5.40757C9.15181 5.55425 9.12697 5.71423 9.12697 5.88516H9.49228C9.49228 5.75036 9.51188 5.63396 9.54786 5.53382L9.2046 5.40757ZM9.12697 5.88516V6.39427H9.49228V5.88516H9.12697ZM9.12697 6.39427C9.12697 6.51504 9.13836 6.62737 9.16362 6.72943L9.51803 6.63987C9.50165 6.57357 9.49228 6.49232 9.49228 6.39427H9.12697ZM9.1646 6.73293C9.19127 6.83234 9.23066 6.92344 9.28655 7.00137L9.58239 6.78452C9.55779 6.75023 9.5349 6.7024 9.51712 6.6363L9.1646 6.73293ZM9.28972 7.00549C9.34646 7.0801 9.41593 7.14048 9.49849 7.18221L9.66184 6.85186C9.63347 6.83751 9.60577 6.81517 9.57928 6.78033L9.28972 7.00549ZM9.50184 7.18381C9.58476 7.2237 9.6745 7.24167 9.76747 7.24167V6.87235C9.72169 6.87235 9.68656 6.86367 9.65855 6.85026L9.50184 7.18381ZM9.76747 7.24167C9.85947 7.24167 9.94806 7.22167 10.0294 7.17833L9.85929 6.85155C9.83524 6.86435 9.80589 6.87235 9.76747 6.87235V7.24167ZM10.0277 7.17926C10.1071 7.13808 10.1742 7.08022 10.2278 7.00789L9.93558 6.7863C9.91427 6.81499 9.88979 6.83573 9.86099 6.85062L10.0277 7.17926ZM10.2273 7.00857C10.2811 6.93674 10.3197 6.85543 10.3447 6.76691L9.99348 6.66547C9.97966 6.71441 9.95999 6.75368 9.93606 6.78569L10.2273 7.00857ZM10.344 6.76925C10.3706 6.67981 10.383 6.58527 10.383 6.48685H10.0176C10.0176 6.55394 10.0092 6.61229 9.99415 6.66313L10.344 6.76925ZM10.383 6.48685C10.383 6.38842 10.3706 6.29388 10.344 6.2045L9.99415 6.31062C10.0092 6.36146 10.0176 6.41975 10.0176 6.48685H10.383ZM10.345 6.20776C10.3201 6.11771 10.2812 6.03511 10.2259 5.96321L9.93752 6.18997C9.95993 6.21915 9.97923 6.25713 9.99317 6.30736L10.345 6.20776ZM10.2273 5.96518C10.1722 5.8915 10.1034 5.83278 10.0218 5.79154L9.8585 6.12183C9.8879 6.13673 9.91347 6.1579 9.93606 6.18807L10.2273 5.96518ZM10.0218 5.79154C9.93813 5.74919 9.84723 5.72992 9.75292 5.72992V6.09924C9.79731 6.09924 9.83122 6.10805 9.8585 6.12183L10.0218 5.79154ZM9.75292 5.72992C9.62872 5.72992 9.51158 5.7599 9.40747 5.82466L9.59889 6.13919C9.63907 6.1142 9.68839 6.09924 9.75292 6.09924V5.72992ZM9.40832 5.82416C9.31322 5.88258 9.23577 5.96007 9.17952 6.05622L9.49386 6.24433C9.51809 6.20296 9.55164 6.16825 9.59803 6.13975L9.40832 5.82416ZM9.17952 6.05622C9.12466 6.1499 9.09361 6.25196 9.08965 6.36011L9.45471 6.37377C9.45629 6.33044 9.46829 6.28803 9.49386 6.24433L9.17952 6.05622ZM9.37106 6.21164L9.18999 6.09383L8.9923 6.40443L9.1733 6.52224L9.37106 6.21164ZM9.27364 6.25633C9.27699 6.16978 9.29465 6.08927 9.32612 6.0135L8.98937 5.87039C8.94036 5.9882 8.91363 6.11248 8.90864 6.24192L9.27364 6.25633ZM9.32521 6.01559C9.35809 5.93921 9.40247 5.87261 9.45873 5.81462L9.19802 5.55591C9.10999 5.64658 9.04064 5.7511 8.99023 5.8683L9.32521 6.01559ZM9.45873 5.81462C9.51377 5.75793 9.5805 5.71281 9.66129 5.6797L9.52406 5.33746C9.39949 5.38849 9.29002 5.46118 9.19802 5.55591L9.45873 5.81462ZM9.66324 5.6789C9.74026 5.64627 9.83159 5.62799 9.9402 5.62799V5.25867C9.79073 5.25867 9.65039 5.28391 9.52211 5.33826L9.66324 5.6789ZM9.9402 5.62799C10.0582 5.62799 10.1532 5.65077 10.2301 5.69016L10.3952 5.36067C10.2586 5.29068 10.1052 5.25867 9.9402 5.25867V5.62799ZM10.231 5.69053C10.3148 5.73294 10.3832 5.79006 10.4381 5.8627L10.7283 5.63833C10.639 5.52021 10.5269 5.42727 10.3944 5.36024L10.231 5.69053ZM10.4381 5.8627C10.4955 5.93853 10.5399 6.02778 10.5702 6.13261L10.9209 6.02901C10.879 5.88418 10.8152 5.75325 10.7283 5.63833L10.4381 5.8627ZM10.5702 6.13261C10.601 6.23915 10.617 6.35487 10.617 6.48057H10.9823C10.9823 6.32293 10.9622 6.17212 10.9209 6.02901L10.5702 6.13261ZM10.617 6.48057C10.617 6.60854 10.5962 6.72401 10.5564 6.82871L10.8973 6.9613C10.9546 6.81074 10.9823 6.6499 10.9823 6.48057H10.617ZM10.5557 6.83037C10.5169 6.93538 10.4612 7.02525 10.3887 7.10195L10.6529 7.35715C10.7607 7.24309 10.8424 7.10995 10.8979 6.95964L10.5557 6.83037ZM10.3878 7.10299C10.3172 7.17877 10.2318 7.23866 10.1292 7.28242L10.2714 7.62269C10.4186 7.55984 10.5468 7.47102 10.6538 7.3561L10.3878 7.10299ZM10.1292 7.28242C10.0299 7.32483 9.91445 7.34785 9.77996 7.34785V7.71717C9.95622 7.71717 10.121 7.68683 10.2714 7.62269L10.1292 7.28242ZM9.77996 7.34785C9.6415 7.34785 9.52065 7.32262 9.41471 7.27522L9.26701 7.61302C9.42463 7.6835 9.59657 7.71717 9.77996 7.71717V7.34785ZM9.41684 7.2762C9.3095 7.22659 9.21793 7.1579 9.14067 7.06945L8.86681 7.31387C8.97817 7.44141 9.11139 7.54107 9.26487 7.61204L9.41684 7.2762ZM9.14067 7.06945C9.06335 6.98099 9.00192 6.87395 8.95765 6.7458L8.61281 6.86749C8.67119 7.03664 8.7554 7.18634 8.86681 7.31387L9.14067 7.06945ZM8.9582 6.74728C8.9154 6.61998 8.89299 6.47761 8.89299 6.31856H8.52769C8.52769 6.51294 8.55515 6.696 8.61226 6.86601L8.9582 6.74728ZM8.89299 6.31856V6.08293H8.52769V6.31856H8.89299ZM8.89299 6.08293C8.89299 5.85395 8.92575 5.64904 8.98889 5.46635L8.64404 5.3446C8.56562 5.57142 8.52769 5.81813 8.52769 6.08293H8.89299ZM8.98864 5.46703C9.05336 5.28212 9.14481 5.12566 9.26183 4.9951L8.9912 4.74704C8.83911 4.91668 8.72374 5.11649 8.64422 5.34386L8.98864 5.46703ZM9.26238 4.99449C9.37885 4.86344 9.51925 4.76182 9.68571 4.68937L9.54123 4.35015C9.32759 4.44315 9.14335 4.5758 8.99065 4.74772L9.26238 4.99449ZM9.68571 4.68937C9.84973 4.6179 10.039 4.58029 10.2565 4.58029V4.21098C9.99682 4.21098 9.75737 4.25603 9.54123 4.35015L9.68571 4.68937ZM12.321 7.48622L12.268 7.66294L12.2702 7.66356L12.321 7.48622ZM12.0359 7.33683L11.9218 7.48105L11.923 7.48192L12.0359 7.33683ZM11.8195 7.08225L11.6615 7.17507L11.663 7.1776L11.8195 7.08225ZM11.7071 5.09833L11.5324 5.04441L11.5321 5.04539L11.7071 5.09833ZM11.9172 4.69226L11.7801 4.57026L11.7792 4.57131L11.9172 4.69226ZM12.2419 4.46082L12.3081 4.63292L12.3098 4.63231L12.2419 4.46082ZM12.9973 4.43349L12.9437 4.61003L12.9465 4.61089L12.9973 4.43349ZM13.4988 4.83322L13.3409 4.92598L13.3414 4.92696L13.4988 4.83322ZM13.0639 5.31709L12.8829 5.34195L12.8833 5.34497L13.0639 5.31709ZM13.0119 5.1067L12.8426 5.17601L12.8432 5.17742L13.0119 5.1067ZM12.4771 4.89846L12.3954 4.73325L12.3936 4.73418L12.4771 4.89846ZM12.3459 5.0268L12.5002 5.12566L12.5012 5.12399L12.3459 5.0268ZM12.2627 5.25818L12.0837 5.22149L12.0833 5.22353L12.2627 5.25818ZM12.2523 6.59204L12.0712 6.61648L12.0717 6.61943L12.2523 6.59204ZM12.3064 6.80877L12.1365 6.87666L12.1385 6.88152L12.3064 6.80877ZM12.3938 6.95391L12.2572 7.07671L12.2621 7.08194L12.3938 6.95391ZM12.5124 7.03387L12.4483 7.20677L12.45 7.20739L12.5124 7.03387ZM12.8391 7.01916L12.9226 7.18344L12.9242 7.18258L12.8391 7.01916ZM12.9724 6.88873L12.8177 6.79049L12.817 6.79153L12.9724 6.88873ZM13.5014 5.68948V6.21964H13.8667V5.68948H13.5014ZM13.5014 6.21964C13.5014 6.43736 13.4783 6.6174 13.436 6.76297L13.7863 6.86755C13.8411 6.67926 13.8667 6.46204 13.8667 6.21964H13.5014ZM13.436 6.76297C13.3932 6.90873 13.3342 7.0194 13.2631 7.10213L13.5389 7.34428C13.651 7.21385 13.7319 7.05283 13.7863 6.86755L13.436 6.76297ZM13.2631 7.10213C13.1915 7.18566 13.1078 7.24598 13.0107 7.28531L13.1463 7.62823C13.2989 7.56649 13.4301 7.4712 13.5389 7.34428L13.2631 7.10213ZM13.0107 7.28531C12.9101 7.32594 12.7948 7.34785 12.6623 7.34785V7.71717C12.835 7.71717 12.9971 7.68849 13.1463 7.62823L13.0107 7.28531ZM12.6623 7.34785C12.5555 7.34785 12.459 7.33437 12.3717 7.30883L12.2702 7.66356C12.3938 7.69975 12.5249 7.71717 12.6623 7.71717V7.34785ZM12.3739 7.30944C12.2897 7.28371 12.2151 7.24444 12.1488 7.19169L11.923 7.48192C12.0259 7.56384 12.1413 7.62416 12.268 7.66294L12.3739 7.30944ZM12.15 7.19261C12.0853 7.14036 12.027 7.07265 11.9759 6.9869L11.663 7.1776C11.734 7.29664 11.8199 7.3987 11.9218 7.48105L12.15 7.19261ZM11.9774 6.98949C11.9289 6.90504 11.889 6.80003 11.8603 6.67138L11.504 6.75257C11.5391 6.91009 11.5907 7.0519 11.6615 7.17507L11.9774 6.98949ZM11.8603 6.67138C11.832 6.54458 11.8169 6.39452 11.8169 6.21964H11.4516C11.4516 6.41507 11.4684 6.59327 11.504 6.75257L11.8603 6.67138ZM11.8169 6.21964V5.68948H11.4516V6.21964H11.8169ZM11.8169 5.68948C11.8169 5.47165 11.84 5.29345 11.882 5.1512L11.5321 5.04539C11.477 5.2314 11.4516 5.44727 11.4516 5.68948H11.8169ZM11.8818 5.15219C11.9261 5.00557 11.9854 4.89477 12.0553 4.81321L11.7792 4.57131C11.6688 4.70014 11.588 4.86005 11.5324 5.04441L11.8818 5.15219ZM12.0544 4.81426C12.1273 4.73048 12.2115 4.6709 12.3081 4.63292L12.1757 4.28872C12.0226 4.34892 11.8903 4.44365 11.7801 4.57026L12.0544 4.81426ZM12.3098 4.63231C12.4103 4.59162 12.5256 4.56977 12.6581 4.56977V4.20045C12.4853 4.20045 12.3232 4.22907 12.174 4.28939L12.3098 4.63231ZM12.6581 4.56977C12.7642 4.56977 12.859 4.58374 12.9437 4.61003L13.0508 4.25696C12.9275 4.21867 12.7962 4.20045 12.6581 4.20045V4.56977ZM12.9465 4.61089C13.0306 4.63545 13.1049 4.67349 13.1709 4.72494L13.3939 4.43238C13.2906 4.35193 13.1749 4.29321 13.0481 4.25609L12.9465 4.61089ZM13.1709 4.72494C13.2348 4.77468 13.2918 4.8406 13.3409 4.92598L13.6568 4.74046C13.5865 4.61827 13.4992 4.51443 13.3939 4.43238L13.1709 4.72494ZM13.3414 4.92696C13.3895 5.00951 13.4293 5.11347 13.458 5.24199L13.8143 5.1608C13.7792 5.00323 13.7274 4.86172 13.6562 4.73947L13.3414 4.92696ZM13.458 5.24199C13.4862 5.36719 13.5014 5.51609 13.5014 5.68948H13.8667C13.8667 5.49541 13.8499 5.31893 13.8143 5.1608L13.458 5.24199ZM13.2653 6.2996V5.60743H12.9V6.2996H13.2653ZM13.2653 5.60743C13.2653 5.49011 13.2587 5.38363 13.2444 5.28926L12.8833 5.34497C12.8941 5.41606 12.9 5.50316 12.9 5.60743H13.2653ZM13.2449 5.29228C13.2323 5.19878 13.2119 5.11224 13.1806 5.03597L12.8432 5.17742C12.8591 5.2162 12.8732 5.27 12.8829 5.34195L13.2449 5.29228ZM13.1812 5.03745C13.151 4.96211 13.1105 4.89286 13.0561 4.83568L12.7928 5.09168C12.8078 5.10744 12.8256 5.13354 12.8426 5.17601L13.1812 5.03745ZM13.0561 4.83568C13.0036 4.78047 12.9413 4.73787 12.87 4.71079L12.7417 5.05659C12.7591 5.06324 12.7759 5.07395 12.7928 5.09168L13.0561 4.83568ZM12.87 4.71079C12.8024 4.68518 12.7311 4.67379 12.6581 4.67379V5.04311C12.6934 5.04311 12.7205 5.04859 12.7417 5.05659L12.87 4.71079ZM12.6581 4.67379C12.5661 4.67379 12.4771 4.69195 12.3954 4.73325L12.5587 5.06361C12.5825 5.05161 12.6141 5.04311 12.6581 5.04311V4.67379ZM12.3936 4.73418C12.3076 4.7788 12.2409 4.8475 12.1907 4.92961L12.5012 5.12399C12.5232 5.08823 12.5439 5.07137 12.5605 5.06269L12.3936 4.73418ZM12.1917 4.92789C12.1396 5.01092 12.1057 5.11168 12.0837 5.22149L12.4417 5.29493C12.4586 5.21115 12.4802 5.15766 12.5002 5.12566L12.1917 4.92789ZM12.0833 5.22353C12.0624 5.33395 12.053 5.46272 12.053 5.60743H12.4183C12.4183 5.47725 12.4269 5.37322 12.4421 5.2929L12.0833 5.22353ZM12.053 5.60743V6.2996H12.4183V5.60743H12.053ZM12.053 6.2996C12.053 6.41624 12.0588 6.52224 12.0712 6.61648L12.4334 6.56766C12.4236 6.49362 12.4183 6.40455 12.4183 6.2996H12.053ZM12.0717 6.61943C12.0856 6.71342 12.1065 6.79997 12.1365 6.87666L12.4763 6.74088C12.4591 6.69693 12.4439 6.639 12.4329 6.56465L12.0717 6.61943ZM12.1385 6.88152C12.1693 6.95403 12.208 7.0207 12.2572 7.07671L12.5303 6.83124C12.513 6.81154 12.4935 6.78125 12.4743 6.73601L12.1385 6.88152ZM12.2621 7.08194C12.3147 7.13716 12.377 7.17975 12.4483 7.20677L12.5765 6.86097C12.5591 6.85438 12.5423 6.84367 12.5255 6.82594L12.2621 7.08194ZM12.45 7.20739C12.5179 7.23238 12.5892 7.24377 12.6623 7.24377V6.87445C12.6271 6.87445 12.5985 6.86903 12.5748 6.86035L12.45 7.20739ZM12.6623 7.24377C12.7534 7.24377 12.8418 7.22542 12.9226 7.18344L12.7557 6.85487C12.7339 6.8662 12.7043 6.87445 12.6623 6.87445V7.24377ZM12.9242 7.18258C13.0099 7.13697 13.077 7.06852 13.1276 6.98592L12.817 6.79153C12.7955 6.82668 12.7739 6.84521 12.7541 6.85573L12.9242 7.18258ZM13.127 6.9869C13.1803 6.9011 13.2143 6.79867 13.2351 6.68726L12.8761 6.61888C12.8608 6.70105 12.8393 6.75571 12.8177 6.79049L13.127 6.9869ZM13.2351 6.68726C13.2558 6.57567 13.2653 6.44567 13.2653 6.2996H12.9C12.9 6.43126 12.8914 6.53689 12.8761 6.61888L13.2351 6.68726Z" fill="#131921"/>
</svg>
