<svg
      xmlns="http://www.w3.org/2000/svg"
      xmlnsXlink="http://www.w3.org/1999/xlink"
      viewBox="0 0 13.3333 14.1013"
      width="13.333252"
      height="14.101276"
      fill="none">
      <g id="Group 939">
        <path
          id="Vector (Stroke)"
          d="M6.29817 0.112782C6.52274 -0.0376465 6.81592 -0.0375894 7.04043 0.112926L13.0379 4.13372C13.2225 4.2575 13.3333 4.46517 13.3333 4.68746L13.3333 13.4143C13.3333 13.7825 13.0349 14.081 12.6667 14.081L0.666667 14.081C0.298477 14.081 0 13.7825 0 13.4143L0 4.68746C0 4.46508 0.110885 4.25734 0.295647 4.13357L6.29817 0.112782ZM1.33333 5.0433L1.33333 12.7477L12 12.7477L12 5.04314L6.66904 1.46918L1.33333 5.0433Z"
          fill="currentColor"
          fill-rule="evenodd"
        />
        <path
          id="Vector (Stroke)"
          d="M4.74316 9.61612C4.74316 9.24793 5.04164 8.94945 5.40983 8.94945L7.92852 8.94945C8.29671 8.94945 8.59518 9.24793 8.59518 9.61612L8.59518 13.4346C8.59518 13.8028 8.29671 14.1013 7.92852 14.1013C7.56033 14.1013 7.26185 13.8028 7.26185 13.4346L7.26185 10.2828L6.0765 10.2828L6.0765 13.4346C6.0765 13.8028 5.77802 14.1013 5.40983 14.1013C5.04164 14.1013 4.74316 13.8028 4.74316 13.4346L4.74316 9.61612Z"
          fill="currentColor"
          fill-rule="evenodd"
        />
      </g>
    </svg>