<svg width="16" height="17" viewBox="0 0 16 17" fill="none" xmlns="http://www.w3.org/2000/svg">
<g opacity="0.8">
<path style="fill: none; stroke: #818181;" d="M4.95118 13.9893H11.6469C13.165 13.9893 14.3915 12.7627 14.3915 11.2446C14.3915 9.72654 13.165 8.5 11.6469 8.5H4.27759C2.7595 8.5 1.53296 7.27346 1.53296 5.75537C1.53296 4.23728 2.7595 3.01074 4.27759 3.01074H10.0685" stroke-width="2"/>
<path style="fill: none; stroke: #818181;" d="M3.01072 16C4.12121 16 5.02144 15.0998 5.02144 13.9893C5.02144 12.8788 4.12121 11.9786 3.01072 11.9786C1.90023 11.9786 1 12.8788 1 13.9893C1 15.0998 1.90023 16 3.01072 16Z" stroke-width="2"/>
<path style="fill: none; stroke: #818181;" d="M12.3706 5.02144C13.4811 5.02144 14.3813 4.12121 14.3813 3.01072C14.3813 1.90023 13.4811 1 12.3706 1C11.2601 1 10.3599 1.90023 10.3599 3.01072C10.3599 4.12121 11.2601 5.02144 12.3706 5.02144Z" stroke-width="2"/>
</g>
</svg>
