<svg width="21" height="17" viewBox="0 0 21 17"  xmlns="http://www.w3.org/2000/svg" style="fill: none;">
<path d="M19.4168 12.517C19.4168 14.2258 17.9761 15.6111 16.1989 15.6111H4.13192C2.35475 15.6111 0.914062 14.2258 0.914062 12.517V8.26265V4.00826C0.914062 2.29944 2.35475 0.914165 4.13192 0.914165H16.1989C17.9761 0.914165 19.4168 2.29944 19.4168 4.00826V12.517Z" stroke="#131921" style="fill: none;" stroke-width="1.82833" stroke-miterlimit="10"/>
<path style="fill: none;" d="M0.914062 8.67145C0.914062 8.67145 5.32478 8.11312 9.82038 10.6009C14.3161 13.0885 19.4168 12.6897 19.4168 12.6897" stroke="#131921" stroke-width="1.82833" stroke-miterlimit="10"/>
<path style="fill: none;" d="M13.6364 8.01336C14.8851 8.01336 15.8974 7.06252 15.8974 5.88958C15.8974 4.71666 14.8851 3.7658 13.6364 3.7658C12.3876 3.7658 11.3752 4.71666 11.3752 5.88958C11.3752 7.06252 12.3876 8.01336 13.6364 8.01336Z" stroke="#131921" stroke-width="1.82833" stroke-miterlimit="10"/>
</svg>
